<?xml version="1.0" encoding="UTF-8"?>
<svg id="_レイヤー_2" data-name="レイヤー 2" xmlns="http://www.w3.org/2000/svg" viewBox="0 0 155.58 183.11">
  <defs>
    <style>
      .cls-1 {
        fill: #3b3b3b;
        stroke-width: 0px;
      }
    </style>
  </defs>
  <g id="object">
    <g>
      <path class="cls-1" d="m81.31,79.03c9.2-.77-.36-14.54-4.3-6.19,3.93-8.35-12.77-6.96-7.51.63-4.41-6.35-10.12,3.24-6.48,6.08-4.42,1.44-8.5,3.81-11.72,6.6,1.05-2.59,2.11-5.07,3.16-7.51,5.09-11.86,9.66-22.53,9.77-39.19,4.01-1.06,6.98-4.44,3.33-9.7,8.38,12.08,19.76-12.07,5.11-10.85,14.65-1.22-.57-23.15-6.84-9.85,6.27-13.3-20.33-11.08-11.95,1-8.38-12.08-19.76,12.07-5.11,10.85-14.65,1.22.57,23.15,6.84,9.85-2.88,6.11,1.18,8.94,5.6,9.04-.19,15.93-4.6,26.23-9.5,37.66-3.44,8.01-7.05,16.44-9.69,27.46-2.2-13.27-8.81-24.23-14.61-32.42,6.37.97,11.46-13.71.54-12.8,13.23-1.1-.52-20.9-6.18-8.9,5.66-12.01-18.36-10-10.79.9-7.57-10.9-17.84,10.9-4.62,9.8-13.23,1.1.52,20.9,6.18,8.9-4.76,10.1,11.48,10.28,12.25,3.6,7.35,10.35,16.09,25.26,14.87,43.51-2.18,15.75-2.38,36.35,1.43,65.6l2.98-.39c-3.74-28.72-3.58-48.97-1.47-64.45h.02c0-.09,0-.18.02-.27,1.25-9,3.15-16.39,5.33-22.89h0c2.14-4.77,7.84-9.61,14.52-12.17-.77,3.82,5.19,9.7,8.09,3.53-3.93,8.35,12.77,6.96,7.51-.63,5.27,7.58,12.41-7.58,3.21-6.81Z"/>
      <path class="cls-1" d="m98.76,110.2c-6.43-.53.24-10.16,3-4.33-2.75-5.84,8.92-4.87,5.25.43,3.08-4.44,7.08,2.26,4.53,4.25,3.09,1,5.94,2.66,8.19,4.61-.73-1.81-1.48-3.54-2.21-5.25-3.56-8.29-6.76-15.74-6.85-27.39-2.8-.74-4.88-3.1-2.34-6.77-5.85,8.44-13.82-8.43-3.58-7.58-10.24-.85.39-16.18,4.78-6.89-4.39-9.29,14.21-7.75,8.35.69,5.85-8.44,13.82,8.43,3.58,7.58,10.24.85-.39,16.18-4.78,6.89,2.02,4.27-.82,6.25-3.91,6.32.14,11.13,3.23,18.33,6.66,26.32,2.41,5.6,4.94,11.48,6.79,19.19,1.53-9.27,6.14-16.94,10.2-22.67-4.45.68-8.02-9.57-.39-8.94-9.25-.76.35-14.61,4.31-6.22-3.96-8.39,12.83-7,7.54.62,5.29-7.63,12.48,7.61,3.23,6.84,9.25.76-.35,14.61-4.31,6.22,3.33,7.06-8.02,7.19-8.56,2.52-5.13,7.24-11.23,17.67-10.37,30.42,1.53,11.01,1.68,25.41-.97,45.85l-2.08-.27c2.6-20.07,2.48-34.23.99-45.05h-.02c0-.06,0-.13-.01-.19-.88-6.29-2.21-11.45-3.74-16h0c-1.49-3.33-5.48-6.71-10.16-8.5.54,2.67-3.62,6.78-5.65,2.47,2.75,5.84-8.92,4.87-5.25-.43-3.68,5.3-8.68-5.29-2.25-4.76Z"/>
    </g>
  </g>
</svg>