<?xml version="1.0" encoding="UTF-8"?>
<svg id="Layer_2" data-name="Layer 2" xmlns="http://www.w3.org/2000/svg" viewBox="0 0 110.58 256.72">
  <defs>
    <style>
      .cls-1 {
        fill: #3b3b3b;
        stroke-width: 0px;
      }
    </style>
  </defs>
  <g id="Layer_8" data-name="Layer 8">
    <g>
      <g id="HcXXcS">
        <path class="cls-1" d="M.01,48.98c0-7.32-.04-14.65.03-21.97.02-1.79.19-3.64.67-5.36,1.46-5.25,7.43-7.67,12.22-5.06,2.61,1.42,3.5,3.9,3.88,6.62.19,1.31.27,2.65.27,3.98.02,11.58.02,23.16,0,34.74,0,2.5-1.5,4.59-3.77,5.33-2.32.76-4.86.07-6.21-1.96-.62-.93-1.08-2.17-1.09-3.27-.09-8.58-.05-17.17-.05-25.75,0-1.2.51-1.81,1.45-1.83.97-.01,1.5.62,1.5,1.89,0,8.25,0,16.5,0,24.75,0,.44,0,.89.07,1.33.22,1.24,1.25,2.1,2.49,2.11,1.28.02,2.35-.86,2.57-2.15.07-.4.07-.81.07-1.21,0-10.91.03-21.83-.02-32.74-.01-2.06-.21-4.14-.58-6.16-.4-2.18-1.69-3.31-3.61-3.52-2.28-.25-4.48.01-5.68,2.27-.61,1.14-.83,2.5-1.13,3.79-.14.6-.09,1.25-.09,1.88,0,15.06-.01,30.11,0,45.17,0,6.56,6.72,10.74,12.43,7.71,3.07-1.63,4.6-4.27,4.6-7.78,0-14.87,0-29.74,0-44.62,0-.44-.01-.89.07-1.32.16-.8.72-1.22,1.51-1.18.8.03,1.29.5,1.41,1.31.03.22.02.44.02.66,0,15.13.01,30.26,0,45.39,0,4.81-2.87,8.97-7.27,10.7-4.41,1.74-9.39.64-12.64-2.81C1.06,77.67.01,75.01.01,71.95c0-7.66,0-15.32,0-22.97Z"/>
      </g>
      <g>
        <path class="cls-1" d="M101.86,14.79c.51,5.47,1.38,10.86,1.45,16.27.19,15.96.04,31.92.08,47.88.03,11.44.13,22.88.23,34.32.1,11.76.2,23.51.38,35.27.03,1.95-.47,2.7-2.55,2.66-6.12-.12-12.25-.09-18.38-.01-1.77.02-2.37-.52-2.36-2.34.07-10.64-.01-21.28.05-31.92.17-28.52.33-57.03.63-85.55.05-4.55.53-9.14,1.29-13.64.74-4.35,1.84-4.98,6.13-4.97,4.51,0,9.02-.16,13.51.09,4.56.26,6.47,2,6.87,6.57.62,7.13,1.02,14.3,1.17,21.46.22,10.47.15,20.95.19,31.43,0,.48.08,1.01-.08,1.44-.2.54-.53,1.35-.92,1.43-.49.1-1.31-.28-1.63-.71-1.27-1.73-1.54-3.57-.68-5.68.62-1.51,1.04-3.22,1.03-4.84-.08-12.25-.23-24.49-.48-36.74-.05-2.56-.46-5.13-.89-7.67-.62-3.63-1.76-4.53-5.04-4.74Z"/>
        <path class="cls-1" d="M92.56,151.69c2.98,0,5.96.08,8.94-.03,2.23-.08,3.33.86,3.4,3.05.2,6.5.58,13.01.55,19.51-.05,10.91-.22,21.82-.6,32.73-.19,5.35-.96,10.68-1.47,16.02-.17,1.74-1.06,2.42-2.89,2.38-5.39-.1-10.79-.12-16.18,0-1.96.04-2.61-.77-3.03-2.54-1.84-7.77-1.5-15.6-1.2-23.48.24-6.17-.35-12.36-.38-18.55-.04-8.83.05-17.66.18-26.48.03-1.78,1.12-2.69,3.03-2.64,3.22.08,6.44.02,9.66.02Z"/>
        <path class="cls-1" d="M92.49,226.27c2.42,0,4.83.05,7.25-.02,1.55-.04,2.27.35,1.81,2.09-1.67,6.29-3.1,12.65-4.97,18.88-.86,2.85-3.61.86-5.45,1.23-1.01.21-2.59.79-3.09-1.22-1.56-6.32-3.21-12.62-4.86-18.91-.39-1.47,0-2.1,1.59-2.06,2.57.06,5.15.02,7.73.02Z"/>
        <path class="cls-1" d="M96.77,12.03c-2.75,0-4.98.09-7.2-.07-.5-.03-1.34-.91-1.35-1.39,0-2.71.11-5.43.38-8.13C88.79.58,90.22,0,91.91,0c1.69,0,3.73-.15,4.05,2.04.48,3.2.54,6.45.81,9.99Z"/>
        <path class="cls-1" d="M95.07,249.54c-.76,2.55-1.45,4.85-2.14,7.15l-1.09.04c-.71-2.27-1.41-4.54-2.24-7.19h5.47Z"/>
      </g>
    </g>
  </g>
</svg>