<?xml version="1.0" encoding="UTF-8"?>
<svg id="Layer_2" data-name="Layer 2" xmlns="http://www.w3.org/2000/svg" viewBox="0 0 271.73 44.04">
  <defs>
    <style>
      .cls-1 {
        fill: #000;
        stroke-width: 0px;
      }
    </style>
  </defs>
  <g id="text">
    <g>
      <path class="cls-1" d="M2.82,40.8h18.96v2.4H0V0h2.82v40.8Z"/>
      <path class="cls-1" d="M60.84,2.4h-6v38.4h6v2.4h-14.82v-2.4h6V2.4h-6V0h14.82v2.4Z"/>
      <path class="cls-1" d="M91.5,3.9l-.12.12v39.18h-2.82V0h4.08l14.7,37.02.12-.12V0h2.82v43.62h-2.94L91.5,3.9Z"/>
      <path class="cls-1" d="M156.84,2.4h-18.3v17.4h13.14v2.4h-13.14v18.6h18.72v2.4h-21.54V0h21.12v2.4Z"/>
      <path class="cls-1" d="M225.12,0v32.1c0,8.52-6.48,11.94-11.28,11.94-5.94,0-11.4-4.92-11.4-11.28V0h2.82v30.66c0,8.22,3.9,10.98,8.58,10.98,4.92,0,8.46-3,8.46-10.02V0h2.82Z"/>
      <path class="cls-1" d="M250.13,0h9.72c8.94,0,11.88,6.36,11.88,12.9,0,8.52-5.22,12.72-13.32,12.72h-5.46v17.58h-2.82V0ZM252.95,2.4v20.82h5.04c7.56,0,10.74-4.14,10.74-10.26,0-8.1-4.32-10.56-8.7-10.56h-7.08Z"/>
    </g>
  </g>
</svg>