<?xml version="1.0" encoding="UTF-8"?>
<svg id="Layer_2" data-name="Layer 2" xmlns="http://www.w3.org/2000/svg" viewBox="0 0 339.95 45.78">
  <defs>
    <style>
      .cls-1 {
        fill: #000;
        stroke-width: 0px;
      }
    </style>
  </defs>
  <g id="text">
    <g>
      <path class="cls-1" d="M22.14,4.14H2.82v17.04h14.52v2.4H2.82v21.36H0V1.74h22.14v2.4Z"/>
      <path class="cls-1" d="M66.18,4.14h-18.3v17.4h13.14v2.4h-13.14v18.6h18.72v2.4h-21.54V1.74h21.12v2.4Z"/>
      <path class="cls-1" d="M114.12,44.94h-3.18l-3.9-13.14h-14.7l-3.96,13.14h-3.12L99.66,0l14.46,44.94ZM92.94,29.4h13.5l-6.78-21.72-6.72,21.72Z"/>
      <path class="cls-1" d="M159.06,4.14h-12.48v40.8h-2.82V4.14h-12.42V1.74h27.72v2.4Z"/>
      <path class="cls-1" d="M202.08,1.74v32.1c0,8.52-6.48,11.94-11.28,11.94-5.94,0-11.4-4.92-11.4-11.28V1.74h2.82v30.66c0,8.22,3.9,10.98,8.58,10.98,4.92,0,8.46-3,8.46-10.02V1.74h2.82Z"/>
      <path class="cls-1" d="M227.04,1.74h10.26c7.26,0,11.46,4.86,11.46,11.88,0,5.46-3.06,10.32-8.34,12l11.64,19.32h-3.54l-10.74-18.66h-7.92v18.66h-2.82V1.74ZM229.86,23.88h7.02c3.84,0,8.88-2.94,8.88-10.5,0-5.04-2.4-9.24-8.46-9.24h-7.44v19.74Z"/>
      <path class="cls-1" d="M294.17,4.14h-18.3v17.4h13.14v2.4h-13.14v18.6h18.72v2.4h-21.54V1.74h21.12v2.4Z"/>
      <path class="cls-1" d="M337.13,7.86c-2.7-2.34-5.76-4.56-9.48-4.56-4.38,0-7.98,3-7.98,7.56,0,3.36,1.5,5.58,6.78,8.82l3.54,2.16c6.84,4.14,9.96,6.6,9.96,11.94,0,7.44-4.86,12-12.24,12-5.1,0-9.12-2.4-12.18-6.36l2.16-1.74c2.28,3.3,5.88,5.7,10.02,5.7,5.04,0,9.24-3.72,9.24-8.88,0-4.08-.48-5.64-8.46-10.38l-4.02-2.4c-4.14-2.46-7.8-5.34-7.8-10.56,0-6.48,4.92-10.26,11.16-10.26,4.08,0,8.04,2.16,10.98,4.86l-1.68,2.1Z"/>
    </g>
  </g>
</svg>